<?xml version="1.0" encoding="utf-8"?>
<!-- Generator: Adobe Illustrator 16.0.3, SVG Export Plug-In . SVG Version: 6.00 Build 0)  -->
<!DOCTYPE svg PUBLIC "-//W3C//DTD SVG 1.1//EN" "http://www.w3.org/Graphics/SVG/1.1/DTD/svg11.dtd">
<svg version="1.1" id="Layer_1" xmlns="http://www.w3.org/2000/svg" xmlns:xlink="http://www.w3.org/1999/xlink" x="0px" y="0px"
	 width="144px" height="144px" viewBox="0 0 144 144" enable-background="new 0 0 144 144" xml:space="preserve">
<rect fill="#FFFFFF" width="144" height="144"/>
<polygon fill="#D6C09F" points="73.717,62.794 113.516,44.021 111.732,53.689 112.295,54.815 127.596,29.565 18.148,29.565 
	33.543,55.285 "/>
<polygon fill="#FFFFFF" points="73.247,63.169 32.791,55.566 32.229,53.126 33.543,55.285 73.717,62.794 80.944,59.415 "/>
<path fill="#FFFFFF" d="M73.717,62.794l-40.174-7.603l-1.314-2.159L29.6,40.735c1.972,1.502,23.092,8.824,27.409,10.231l0,0
	c-2.815-4.599-7.321-9.011-11.546-13.329c3.004,3.097,8.354,6.101,12.578,8.729c1.596,1.033,3.191,1.972,4.975,2.91
	c-0.188-4.881-2.534-9.762-4.317-14.455c1.313,3.566,5.257,7.415,8.166,10.794c0.845,0.938,1.69,1.877,2.722,2.816
	c2.348-4.693,3.191-9.762,3.285-14.549c-0.094,4.412,0.846,9.95,3.286,14.456c1.22-1.126,2.253-2.347,3.285-3.473
	c2.722-3.191,6.289-6.758,7.603-10.043c-1.783,4.787-3.941,9.668-4.224,14.549c6.853-3.473,12.202-7.979,17.459-11.827
	c-4.224,3.098-7.134,7.322-9.856,10.889c-0.563,0.751-1.22,1.596-1.689,2.44h0.094c4.318-1.408,25.156-7.603,25.156-7.603
	L81.132,59.227L73.717,62.794"/>
<path fill="#981A2A" d="M72.027,6.756c-32.196-2.252-50.125,3.379-53.41,4.036v9.011c9.387-2.065,26.096-4.975,49.749-5.726l0,0
	h0.094l0,0c32.478-0.657,52.471,3.191,58.103,4.599l0,0C126.469,18.677,107.695,9.948,72.027,6.756"/>
<path fill="#981A2A" d="M113.984,95.365c-13.798,16.802-32.946,28.816-40.737,32.289c-11.733-5.443-39.799-24.687-52.47-62.138
	c-0.282-1.033-0.564-2.065-0.846-3.191c0.188,1.408,0.375,2.722,0.563,4.13v-0.094c0.47,2.347,0.938,4.693,1.502,7.04
	c11.733,40.081,40.362,60.919,51.156,66.645C81.602,135.633,100.374,119.488,113.984,95.365"/>
<path fill="#B99765" d="M31.383,43.27l6.008,35.762c0,0,14.174,21.308,34.355,32.665V64.296L31.383,43.27z"/>
<path fill="#B99765" d="M74.843,62.981v48.622c0.376-0.281,0.845-0.469,1.22-0.751c0.376-0.188,0.658-0.375,1.033-0.657V62.325
	L74.843,62.981z"/>
<path fill="#981A2A" d="M116.237,41.486c0,0-33.134,17.177-43.178,18.116C61.89,58.476,31.383,43.27,31.383,43.27
	c19.619,16.333,41.113,21.401,41.959,21.683l0,0c0,0,16.238-3.191,38.484-19.055c-0.188,3.473-1.221,13.611-3.098,25.156
	L116.237,41.486z"/>
</svg>
