<?xml version="1.0" encoding="utf-8"?>
<!-- Generator: Adobe Illustrator 16.0.3, SVG Export Plug-In . SVG Version: 6.00 Build 0)  -->
<!DOCTYPE svg PUBLIC "-//W3C//DTD SVG 1.1//EN" "http://www.w3.org/Graphics/SVG/1.1/DTD/svg11.dtd">
<svg version="1.1" id="Calque_1" xmlns="http://www.w3.org/2000/svg" xmlns:xlink="http://www.w3.org/1999/xlink" x="0px" y="0px"
	 width="164.291px" height="164.291px" viewBox="0 0 164.291 164.291" enable-background="new 0 0 164.291 164.291"
	 xml:space="preserve">
<path fill="#249492" d="M105.513,90.398"/>
<g>
	<g>
		<polygon fill="#FFFFFF" points="24.736,22.19 2.569,22.19 2.569,164.071 31.932,100.292 122.056,100.292 122.056,22.19 
			89.426,22.19 		"/>
		<path fill="#716F6A" d="M2.569,166.349c-0.159,0-0.33-0.023-0.489-0.058c-1.048-0.228-1.788-1.149-1.788-2.22V22.19
			c0-1.264,1.013-2.277,2.277-2.277h119.486c1.264,0,2.277,1.013,2.277,2.277v78.102c0,1.264-1.014,2.277-2.277,2.277H33.389
			l-28.747,62.47C4.254,165.847,3.446,166.349,2.569,166.349z M4.846,24.468v129.22l25.013-54.352
			c0.364-0.809,1.184-1.321,2.072-1.321h87.847V24.468H4.846z"/>
	</g>
	<rect x="17.928" y="60.08" fill="#2B8282" width="82.804" height="4.554"/>
	<rect x="17.928" y="44.244" fill="#2B8282" width="82.804" height="4.554"/>
	<g>
		
			<ellipse transform="matrix(-0.0577 -0.9983 0.9983 -0.0577 80.273 164.2578)" fill="#39C6BC" cx="117.656" cy="44.245" rx="38.344" ry="38.776"/>
		<path fill="#249492" d="M117.559,84.865c-10.053,0-19.64-3.598-27.199-10.258c-8.197-7.218-13.047-17.157-13.673-27.996
			c-0.626-10.838,3.051-21.267,10.349-29.385c7.298-8.106,17.339-12.911,28.28-13.548c22.565-1.31,42.034,15.813,43.332,38.185
			c0.626,10.839-3.052,21.268-10.35,29.374c-7.298,8.106-17.339,12.911-28.28,13.549C119.187,84.843,118.367,84.865,117.559,84.865z
			 M117.729,8.175c-0.718,0-1.435,0.023-2.152,0.057c-9.734,0.569-18.671,4.839-25.161,12.045
			c-6.489,7.195-9.745,16.463-9.188,26.072c0.558,9.609,4.861,18.433,12.137,24.831c7.275,6.41,16.656,9.62,26.379,9.063
			c9.734-0.569,18.672-4.839,25.161-12.045c6.489-7.196,9.746-16.463,9.188-26.072C152.988,22.999,136.891,8.175,117.729,8.175z"/>
	</g>
	<path fill="#2B8282" d="M161.448,132.045c-0.854,0-1.663-0.479-2.05-1.298l-24.785-52.121c-0.547-1.139-0.057-2.494,1.082-3.04
		c1.127-0.535,2.493-0.057,3.028,1.082l24.785,52.121c0.547,1.138,0.057,2.493-1.082,3.04
		C162.108,131.977,161.778,132.045,161.448,132.045z"/>
	<rect x="82.344" y="53.431" fill="#FFFFFF" width="45.917" height="9.108"/>
	<rect x="79.828" y="36" fill="#FFFFFF" width="48.433" height="9.108"/>
	<path fill="#2B8282" d="M117.559,84.865c-10.053,0-19.64-3.598-27.199-10.258c-8.197-7.218-13.047-17.157-13.673-27.996
		c-0.626-10.838,3.051-21.267,10.349-29.385c7.298-8.106,17.339-12.911,28.28-13.548c22.565-1.31,42.034,15.813,43.332,38.185
		c0.626,10.839-3.052,21.268-10.35,29.374c-7.298,8.106-17.339,12.911-28.28,13.549C119.187,84.843,118.367,84.865,117.559,84.865z
		 M117.729,8.175c-0.718,0-1.435,0.023-2.152,0.057c-9.734,0.569-18.671,4.839-25.161,12.045
		c-6.489,7.195-9.745,16.463-9.188,26.072c0.558,9.609,4.861,18.433,12.137,24.831c7.275,6.41,16.656,9.62,26.379,9.063
		c9.734-0.569,18.672-4.839,25.161-12.045c6.489-7.196,9.746-16.463,9.188-26.072C152.988,22.999,136.891,8.175,117.729,8.175z"/>
</g>
</svg>
