<svg xmlns="http://www.w3.org/2000/svg" width="400" height="400" viewBox="-128 -128 400 400"><path fill="#FFF" d="M-128.5-128.5h401v401h-401z"/><path fill="#D6C09F" d="M76.781 46.364L187.609-5.914l-4.965 26.923 1.566 3.136 42.608-70.315H-77.963l42.871 71.624z"/><path fill="#FFF" d="M75.473 47.408L-37.186 26.236l-1.565-6.795 3.659 6.013 111.873 20.91 20.123-9.409z"/><path fill="#FFF" d="M76.781 46.364L-35.092 25.191l-3.659-6.011-7.321-34.245c5.49 4.183 64.304 24.573 76.325 28.491C22.415.62 9.867-11.667-1.898-23.691 6.467-15.067 21.365-6.702 33.128.617A175.213 175.213 0 0046.982 8.72c-.523-13.592-7.057-27.184-12.021-40.253 3.656 9.931 14.639 20.649 22.74 30.06 2.352 2.612 4.706 5.227 7.579 7.841 6.539-13.069 8.885-27.185 9.148-40.516-.264 12.287 2.354 27.708 9.15 40.256 3.396-3.135 6.274-6.535 9.148-9.67 7.579-8.887 17.514-18.82 21.171-27.968-4.961 13.33-10.971 26.923-11.76 40.515 19.083-9.672 33.978-22.219 48.619-32.936-11.765 8.627-19.869 20.391-27.448 30.323-1.568 2.091-3.396 4.444-4.701 6.795h.261C130.893 9.246 188.92-8.005 188.92-8.005L97.43 36.431l-20.649 9.933"/><path fill="#981A2A" d="M72.075-109.687c-89.656-6.271-139.584 9.41-148.731 11.24v25.094c26.139-5.751 72.669-13.854 138.537-15.945h.261c90.441-1.831 146.119 8.886 161.799 12.806-.26.002-52.54-24.305-151.866-33.195M188.915 137.065c-38.426 46.788-91.746 80.246-113.442 89.916C42.8 211.823-35.356 158.234-70.642 53.944c-.785-2.877-1.571-5.75-2.355-8.886.523 3.92 1.044 7.579 1.567 11.5v-.263c1.308 6.536 2.612 13.07 4.183 19.603 32.673 111.617 112.396 169.646 142.456 185.59 23.528-12.288 75.805-57.247 113.706-124.423"/><path fill="#B99765" d="M-41.107-8.005l16.731 99.588s39.47 59.336 95.669 90.963v-132l-112.4-58.551zM79.916 46.884v135.401c1.047-.783 2.353-1.309 3.396-2.095 1.05-.521 1.833-1.044 2.878-1.827V45.059l-6.274 1.825z"/><path fill="#981A2A" d="M195.186-12.974S102.92 34.86 74.949 37.475C43.847 34.34-41.107-8.005-41.107-8.005 13.526 37.478 73.382 51.59 75.736 52.376c0 0 45.22-8.886 107.169-53.063-.522 9.672-3.399 37.902-8.627 70.053l20.908-82.34z"/></svg>