<svg xmlns="http://www.w3.org/2000/svg" width="150" height="150"><path d="M.22.11H54.7v54.26H.22V.11zM136.108 136.219H150v13.672h-13.892v-13.672zM109.412 136.193h13.891v13.026H95.52v-26.636h13.453v-13.501h13.683V82.166h13.892v13.232h13.232v13.672h-13.232v13.672H109.412v13.451z"/><path d="M68.164 108.862h13.452V95.19H68.604V81.519h13.012V67.847H68.384v13.672H54.48V67.847h13.672V27.246h13.891v40.588h13.453v13.672h13.233V67.834h13.89v13.672h-13.207v13.672H95.52v26.917H82.056v27.135H68.164v-40.368zM135.877 67.834h13.891v13.672h-13.891V67.834zM27.356 67.834h13.892v13.672H27.356V67.834zM.22 67.834h13.891v13.672H.22V67.834zM68.164.11h13.892v13.672H68.164V.11zM0 95.398h54.48v54.26H0v-54.26z"/><path fill="#FFF" d="M13.232 108.582h28.016v27.904H13.232v-27.904z"/><path d="M95.288.11h54.48v54.26h-54.48V.11z"/><path fill="#FFF" d="M108.533 13.293h28.015v27.906h-28.015V13.293zM13.452 13.293h28.015v27.906H13.452V13.293z"/></svg>